<svg xmlns="http://www.w3.org/2000/svg" width="138.879" height="40.498" viewBox="0 0 138.879 40.498">
  <g id="Group_173451" data-name="Group 173451" transform="translate(-69 -48.463)">
    <g id="Group_1" data-name="Group 1" transform="translate(111.505 55.614)">
      <path id="Path_1" data-name="Path 1" d="M195.747,68.424a4.138,4.138,0,1,0-3.738-4.118,3.961,3.961,0,0,0,3.738,4.118m-3.3,3.279a3.631,3.631,0,0,0,3.218,2.06,3.8,3.8,0,0,0,3.652-3.945v-.146l-.059-.029a5.9,5.9,0,0,1-4.2,1.828c-3.477,0-6.292-3.22-6.292-7.165s2.813-7.165,6.292-7.165a5.823,5.823,0,0,1,4.2,1.855l.059-.029v-1.45h3.247v12.3a6.788,6.788,0,0,1-6.753,7.021,6.98,6.98,0,0,1-6.087-3.511l2.725-1.626Z" transform="translate(-188.76 -51.425)" fill="#00aecf"/>
      <path id="Path_2" data-name="Path 2" d="M266.135,62.42l.029-.059a3.847,3.847,0,0,0-6.985,0l.029.059h6.929Zm-.376,4.67,2.261,2.234A7.194,7.194,0,0,1,255.7,64.305a6.974,6.974,0,1,1,13.943,0,3.2,3.2,0,0,1-.059.813h-10.64c0,1.509,1.768,3.279,3.8,3.279a4.253,4.253,0,0,0,3.015-1.306" transform="translate(-240.627 -51.425)" fill="#00aecf"/>
      <path id="Path_3" data-name="Path 3" d="M326.937,64.3v6.789H323.69V57.508h3.247v1.653l.059.029a5.258,5.258,0,0,1,4.116-2.06c5.8,0,5.943,5.28,5.943,6.9v7.05h-3.247V64.3c0-1.624-.029-4.118-3.391-4.118-1.914,0-3.479,1.828-3.479,4.118" transform="translate(-293.307 -51.417)" fill="#00aecf"/>
      <path id="Path_4" data-name="Path 4" d="M396.8,60.179a4.123,4.123,0,1,0,3.74,4.091,3.935,3.935,0,0,0-3.74-4.091m.7,11.284a5.77,5.77,0,0,1-4.231-1.855l-.059.029v6.816H389.96V57.508h3.247v1.421l.059.029A5.977,5.977,0,0,1,397.5,57.13c3.479,0,6.292,3.191,6.292,7.165s-2.813,7.165-6.292,7.165" transform="translate(-344.654 -51.417)" fill="#00aecf"/>
      <path id="Path_5" data-name="Path 5" d="M463.227,68.387a4.123,4.123,0,1,0-3.74-4.091,3.912,3.912,0,0,0,3.74,4.091m-.7-11.257a5.811,5.811,0,0,1,4.2,1.858l.059-.029v-1.45h3.247V71.084h-3.247V69.69l-.059-.059a5.907,5.907,0,0,1-4.2,1.828c-3.479,0-6.291-3.191-6.291-7.165s2.812-7.165,6.291-7.165" transform="translate(-396.009 -51.417)" fill="#00aecf"/>
      <path id="Path_6" data-name="Path 6" d="M535.37,69.324a7.165,7.165,0,1,1,0-10.038l-2.29,2.146a3.806,3.806,0,0,0-2.839-1.247,4.108,4.108,0,0,0,0,8.21,3.961,3.961,0,0,0,2.9-1.277l2.231,2.2Z" transform="translate(-447.775 -51.425)" fill="#00aecf"/>
      <path id="Path_7" data-name="Path 7" d="M587.839,40.986V51.427h-3.247V40.986H582.34V37.851h2.252V31.76h3.247v6.091h2.25v3.134Z" transform="translate(-493.714 -31.76)" fill="#00aecf"/>
    </g>
    <g id="Group_2" data-name="Group 2" transform="translate(69 48.463)">
      <path id="Path_8" data-name="Path 8" d="M64.7,110.17l14.567-10.124V89.92L64.7,99.967Z" transform="translate(-50.131 -69.672)" fill="#073262"/>
      <path id="Path_9" data-name="Path 9" d="M29.134,10.122l-7.348,5.1L14.569,10.2,7.341,15.227,0,10.124,14.569,0Z" fill="#ff555f"/>
      <path id="Path_10" data-name="Path 10" d="M7.341,60.108V50.063L0,44.96V65.208L14.569,75.334v-10.2Z" transform="translate(0 -34.836)" fill="#00aecf"/>
      <path id="Path_11" data-name="Path 11" d="M64.7,89.89V99.944h0l7.251-5Z" transform="translate(-50.131 -69.649)" fill="#00aecf"/>
      <path id="Path_12" data-name="Path 12" d="M79.267,72.61h0l-7.35-5.03L64.7,72.6l7.251,5.053,7.316-5.046Z" transform="translate(-50.131 -52.362)" fill="#ff555f"/>
    </g>
  </g>
</svg>
